<svg id="Bubble" xmlns="http://www.w3.org/2000/svg" width="61" height="61" viewBox="0 0 61 61">
  <defs>
    <style>
      .cls-1 {
        fill: #666d89;
        fill-rule: evenodd;
      }

      .cls-2 {
        fill: none;
        stroke: #666d89;
        stroke-width: 2px;
      }
    </style>
  </defs>
  <path id="bubble-2" data-name="bubble" class="cls-1" d="M390,1059c-5.963,0-11,3.21-11,7a0.5,0.5,0,0,0,1,0c0-3.2,4.673-6,10-6A0.5,0.5,0,0,0,390,1059Zm0-5c-8.837,0-16,5.37-16,12,0,4.13,2.779,7.77,7.008,9.93,0,0.02-.008.04-0.008,0.07,0,1.79-1.339,3.72-1.928,4.74h0a0.9,0.9,0,0,0-.074.35,0.909,0.909,0,0,0,.906.91,1.235,1.235,0,0,1,.255-0.01c3.125-.51,6.069-3.39,6.753-4.22A20.768,20.768,0,0,0,390,1078c8.836,0,16-5.37,16-12S398.836,1054,390,1054Zm0,22a19.02,19.02,0,0,1-2.8-.21,2.845,2.845,0,0,0-.29-0.02,2.02,2.02,0,0,0-1.546.73,13.306,13.306,0,0,1-3.085,2.54,7.8,7.8,0,0,0,.716-2.93c0.006-.06.009-0.13,0.009-0.18a2.013,2.013,0,0,0-1.09-1.79c-3.706-1.89-5.918-4.93-5.918-8.14,0-5.51,6.28-10,14-10s14,4.49,14,10S397.72,1076,390,1076Z" transform="translate(-359 -1037)"/>
  <circle id="Ellipse" class="cls-2" cx="30.5" cy="30.5" r="29.5"/>
</svg>
