<svg id="Bulb" xmlns="http://www.w3.org/2000/svg" width="61" height="61" viewBox="0 0 61 61">
  <defs>
    <style>
      .cls-1 {
        fill: #666d89;
        fill-rule: evenodd;
      }

      .cls-2 {
        fill: none;
        stroke: #666d89;
        stroke-width: 2px;
      }
    </style>
  </defs>
  <path id="bulb-2" data-name="bulb" class="cls-1" d="M390,928a11,11,0,0,0-11,11c0,4.031,3.689,8.3,5.031,12.055,2,5.6,1.782,8.945,5.969,8.945,4.25,0,3.965-3.334,5.969-8.922C397.316,947.319,401,943,401,939A11,11,0,0,0,390,928Zm2.593,27.176-4.959.62c-0.177-.513-0.367-1.112-0.6-1.893,0-.01-0.007-0.022-0.009-0.032l6.189-.773c-0.088.3-.183,0.606-0.264,0.884C392.821,954.431,392.7,954.821,392.593,955.176Zm-5.857-2.268q-0.271-.9-0.615-1.908h7.766c-0.122.36-.245,0.719-0.352,1.059ZM390,958a1.737,1.737,0,0,1-2-1.25l4.238-.53C391.628,957.873,391.181,958,390,958Zm4.672-9h-9.333c-0.5-1.079-1.1-2.16-1.686-3.217-1.3-2.335-2.653-4.75-2.653-6.783a9,9,0,0,1,18,0c0,2.018-1.35,4.446-2.655,6.795C395.76,946.849,395.167,947.926,394.672,949ZM390,933a6.006,6.006,0,0,0-6,6,0.5,0.5,0,0,0,1,0,5.006,5.006,0,0,1,5-5A0.5,0.5,0,0,0,390,933Z" transform="translate(-359 -914)"/>
  <circle id="Ellipse" class="cls-2" cx="30.5" cy="30.5" r="29.5"/>
</svg>
