<svg id="Star" xmlns="http://www.w3.org/2000/svg" width="61" height="61" viewBox="0 0 61 61">
  <defs>
    <style>
      .cls-1 {
        fill: #666d89;
        fill-rule: evenodd;
      }

      .cls-2 {
        fill: none;
        stroke: #666d89;
        stroke-width: 2px;
      }
    </style>
  </defs>
  <path id="star-2" data-name="star" class="cls-1" d="M725.881,1063.56a2.288,2.288,0,0,0-1.843-1.51l-8.326-1.24-3.62-7.52a2.341,2.341,0,0,0-4.184,0l-3.619,7.52-8.327,1.24a2.282,2.282,0,0,0-1.842,1.51,2.194,2.194,0,0,0,.537,2.28l6.1,6.09-1.415,8.46a2.222,2.222,0,0,0,.948,2.2,2.373,2.373,0,0,0,1.331.41,2.335,2.335,0,0,0,1.118-.28l7.259-3.91,7.26,3.91a2.331,2.331,0,0,0,1.117.28,2.38,2.38,0,0,0,1.332-.41,2.225,2.225,0,0,0,.948-2.2l-1.416-8.46,6.1-6.09A2.2,2.2,0,0,0,725.881,1063.56Zm-8.293,6.8a2.22,2.22,0,0,0-.626,1.94l1.415,8.45-7.259-3.91a2.37,2.37,0,0,0-2.235,0l-7.26,3.91,1.416-8.45a2.22,2.22,0,0,0-.626-1.94l-6.1-6.09,8.326-1.24a2.3,2.3,0,0,0,1.744-1.27l3.619-7.51,3.62,7.51a2.3,2.3,0,0,0,1.742,1.27l8.327,1.24Z" transform="translate(-679 -1037)"/>
  <circle id="Ellipse" class="cls-2" cx="30.5" cy="30.5" r="29.5"/>
</svg>
